<mxfile host="app.diagrams.net" modified="2024-03-19T04:23:12.285Z" agent="Mozilla/5.0" version="22.1.21">
  <diagram id="calendar-usecase" name="Calendar Use Case Diagram">
    <mxGraphModel dx="1200" dy="800" grid="1" gridSize="10" guides="1" tooltips="1" connect="1" arrows="1" fold="1" page="1" pageScale="1" pageWidth="850" pageHeight="1100">
      <root>
        <mxCell id="0"/>
        <mxCell id="1" parent="0"/>
        
        <!-- System boundary -->
        <mxCell id="system" value="Hệ thống Quản lý Lịch và Sự kiện" style="shape=rectangle;whiteSpace=wrap;html=1;align=center;verticalAlign=top;" vertex="1" parent="1">
          <mxGeometry x="280" y="40" width="500" height="600" as="geometry"/>
        </mxCell>
        
        <!-- Actors -->
        <mxCell id="teacher" value="Giáo viên" style="shape=umlActor;verticalLabelPosition=bottom;verticalAlign=top;" vertex="1" parent="1">
          <mxGeometry x="120" y="200" width="30" height="60" as="geometry"/>
        </mxCell>

        <mxCell id="student" value="Học sinh" style="shape=umlActor;verticalLabelPosition=bottom;verticalAlign=top;" vertex="1" parent="1">
          <mxGeometry x="120" y="400" width="30" height="60" as="geometry"/>
        </mxCell>

        <!-- Use Cases -->
        <mxCell id="uc1" value="Xem lịch" style="ellipse;whiteSpace=wrap;html=1;" vertex="1" parent="1">
          <mxGeometry x="320" y="120" width="140" height="70" as="geometry"/>
        </mxCell>

        <mxCell id="uc2" value="Tạo sự kiện mới" style="ellipse;whiteSpace=wrap;html=1;" vertex="1" parent="1">
          <mxGeometry x="320" y="220" width="140" height="70" as="geometry"/>
        </mxCell>

        <mxCell id="uc3" value="Chỉnh sửa sự kiện" style="ellipse;whiteSpace=wrap;html=1;" vertex="1" parent="1">
          <mxGeometry x="320" y="320" width="140" height="70" as="geometry"/>
        </mxCell>

        <mxCell id="uc4" value="Xóa sự kiện" style="ellipse;whiteSpace=wrap;html=1;" vertex="1" parent="1">
          <mxGeometry x="320" y="420" width="140" height="70" as="geometry"/>
        </mxCell>

        <mxCell id="uc5" value="Lọc sự kiện theo ngày" style="ellipse;whiteSpace=wrap;html=1;" vertex="1" parent="1">
          <mxGeometry x="320" y="520" width="140" height="70" as="geometry"/>
        </mxCell>

        <!-- Extended Use Cases -->
        <mxCell id="uc6" value="Đặt nhắc nhở" style="ellipse;whiteSpace=wrap;html=1;" vertex="1" parent="1">
          <mxGeometry x="600" y="220" width="140" height="70" as="geometry"/>
        </mxCell>

        <mxCell id="uc7" value="Chia sẻ sự kiện" style="ellipse;whiteSpace=wrap;html=1;" vertex="1" parent="1">
          <mxGeometry x="600" y="320" width="140" height="70" as="geometry"/>
        </mxCell>

        <!-- Extend Relationships -->
        <mxCell id="ext1" value="&lt;&lt;extend&gt;&gt;" style="endArrow=open;endSize=12;dashed=1;html=1;exitX=0;exitY=0.5;exitDx=0;exitDy=0;entryX=1;entryY=0.5;entryDx=0;entryDy=0;" edge="1" parent="1" source="uc6" target="uc2">
          <mxGeometry width="160" relative="1" as="geometry"/>
        </mxCell>

        <mxCell id="ext2" value="&lt;&lt;extend&gt;&gt;" style="endArrow=open;endSize=12;dashed=1;html=1;exitX=0;exitY=0.5;exitDx=0;exitDy=0;entryX=1;entryY=0.5;entryDx=0;entryDy=0;" edge="1" parent="1" source="uc7" target="uc2">
          <mxGeometry width="160" relative="1" as="geometry"/>
        </mxCell>

        <!-- Teacher Relationships -->
        <mxCell id="rel1" value="" style="endArrow=none;html=1;" edge="1" parent="1" source="teacher" target="uc1">
          <mxGeometry relative="1" as="geometry"/>
        </mxCell>

        <mxCell id="rel2" value="" style="endArrow=none;html=1;" edge="1" parent="1" source="teacher" target="uc2">
          <mxGeometry relative="1" as="geometry"/>
        </mxCell>

        <mxCell id="rel3" value="" style="endArrow=none;html=1;" edge="1" parent="1" source="teacher" target="uc3">
          <mxGeometry relative="1" as="geometry"/>
        </mxCell>

        <mxCell id="rel4" value="" style="endArrow=none;html=1;" edge="1" parent="1" source="teacher" target="uc4">
          <mxGeometry relative="1" as="geometry"/>
        </mxCell>

        <mxCell id="rel5" value="" style="endArrow=none;html=1;" edge="1" parent="1" source="teacher" target="uc5">
          <mxGeometry relative="1" as="geometry"/>
        </mxCell>

        <!-- Student Relationships -->
        <mxCell id="rel6" value="" style="endArrow=none;html=1;" edge="1" parent="1" source="student" target="uc1">
          <mxGeometry relative="1" as="geometry"/>
        </mxCell>

        <mxCell id="rel7" value="" style="endArrow=none;html=1;" edge="1" parent="1" source="student" target="uc5">
          <mxGeometry relative="1" as="geometry"/>
        </mxCell>

      </root>
    </mxGraphModel>
  </diagram>
</mxfile>